<?xml version="1.0" encoding="UTF-8" standalone="no"?><!DOCTYPE svg PUBLIC "-//W3C//DTD SVG 1.1//EN" "http://www.w3.org/Graphics/SVG/1.1/DTD/svg11.dtd"><svg width="100%" height="100%" viewBox="0 0 1052 1052" version="1.1" xmlns="http://www.w3.org/2000/svg" xmlns:xlink="http://www.w3.org/1999/xlink" xml:space="preserve" xmlns:serif="http://www.serif.com/" style="fill-rule:evenodd;clip-rule:evenodd;stroke-linejoin:round;stroke-miterlimit:1.41421;"><g id="background-2" serif:id="background 2"><rect x="0" y="0" width="1052" height="1052" style="fill:#1fadc5;"/></g><g><g id="Layer2"><path d="M684.977,792.876l23.566,0c10.191,0 20.382,-1.273 30.573,-3.821c10.191,-2.548 19.214,-7.006 27.07,-13.376c7.856,-6.369 14.225,-14.756 19.108,-25.159c4.883,-10.403 7.325,-23.248 7.325,-38.535l0,-110.826c0,-12.315 2.654,-21.019 7.962,-26.115c5.307,-5.095 12.845,-7.643 22.611,-7.643l17.834,0l0,-54.14l-17.834,0c-9.766,0 -17.304,-2.547 -22.611,-7.643c-5.308,-5.095 -7.962,-13.8 -7.962,-26.114l0,-139.489c0,-15.287 -2.442,-28.132 -7.325,-38.535c-4.883,-10.403 -11.252,-18.79 -19.108,-25.159c-7.856,-6.37 -16.879,-10.828 -27.07,-13.376c-10.191,-2.548 -20.382,-3.821 -30.573,-3.821l-23.566,0l0,54.139l21.019,0c7.218,0 12.951,2.017 17.197,6.051c4.246,4.034 6.369,10.934 6.369,20.701l0,145.858c0,18.259 3.822,31.316 11.465,39.172c7.643,7.855 16.773,12.844 27.388,14.968c-10.615,2.123 -19.745,7.218 -27.388,15.286c-7.643,8.068 -11.465,21.019 -11.465,38.853l0,117.833c0,9.767 -2.123,16.667 -6.369,20.701c-4.246,4.034 -9.979,6.051 -17.197,6.051l-21.019,0l0,54.139Z" style="fill:#2e2e2c;fill-rule:nonzero;"/></g><g id="Layer1"><path d="M407.873,766.166l74.168,0l0,-115.139l17.66,0c26.371,0 50.27,-4.12 71.696,-12.361c21.427,-8.241 39.792,-20.132 55.097,-35.672c15.305,-15.54 27.078,-34.494 35.319,-56.862c8.241,-22.369 12.361,-47.445 12.361,-75.229l0,-7.064c0,-28.254 -4.238,-53.331 -12.715,-75.228c-8.476,-21.897 -20.367,-40.499 -35.671,-55.803c-15.305,-15.305 -33.671,-26.96 -55.097,-34.966c-21.427,-8.005 -45.09,-12.008 -70.99,-12.008l-91.828,0l0,480.332Zm74.168,-415.346l16.953,0c34.848,0 60.395,10.125 76.642,30.374c16.246,20.249 24.369,48.269 24.369,84.058l0,5.651c0,34.377 -8.123,62.161 -24.369,83.352c-16.247,21.191 -41.794,31.786 -76.642,31.786l-16.953,0l0,-235.221Z" style="fill:#2e2e2c;fill-rule:nonzero;"/></g><g id="Layer3"><path d="M343.457,792.876l23.566,0l0,-54.139l-21.019,0c-7.218,0 -12.951,-2.017 -17.197,-6.051c-4.246,-4.034 -6.369,-10.934 -6.369,-20.701l0,-117.833c0,-17.834 -3.822,-30.785 -11.465,-38.853c-7.643,-8.068 -16.773,-13.163 -27.388,-15.286c10.615,-2.124 19.745,-7.113 27.388,-14.968c7.643,-7.856 11.465,-20.913 11.465,-39.172l0,-145.858c0,-9.767 2.123,-16.667 6.369,-20.701c4.246,-4.034 9.979,-6.051 17.197,-6.051l21.019,0l0,-54.139l-23.566,0c-10.191,0 -20.382,1.273 -30.573,3.821c-10.191,2.548 -19.214,7.006 -27.07,13.376c-7.856,6.369 -14.225,14.756 -19.108,25.159c-4.883,10.403 -7.325,23.248 -7.325,38.535l0,139.489c0,12.314 -2.654,21.019 -7.962,26.114c-5.307,5.096 -12.845,7.643 -22.611,7.643l-17.834,0l0,54.14l17.834,0c9.766,0 17.304,2.548 22.611,7.643c5.308,5.096 7.962,13.8 7.962,26.115l0,110.826c0,15.287 2.442,28.132 7.325,38.535c4.883,10.403 11.252,18.79 19.108,25.159c7.856,6.37 16.879,10.828 27.07,13.376c10.191,2.548 20.382,3.821 30.573,3.821Z" style="fill:#2e2e2c;fill-rule:nonzero;"/></g></g></svg>